<?xml version="1.0" encoding="UTF-8"?>
<svg id="Calque_2" data-name="Calque 2" xmlns="http://www.w3.org/2000/svg" viewBox="0 0 305.32 305.32">
  <defs>
    <style>
      .cls-1 {
        fill: #6e6f75;
      }

      .cls-2 {
        fill: #f9f9f8;
      }

      .cls-3 {
        fill: #aeb3b6;
        stroke: #000;
        stroke-miterlimit: 10;
      }

      .cls-4 {
        fill: #fff;
      }

      .cls-5 {
        fill: #1e1e1d;
      }

      .cls-6 {
        fill: #1f658e;
      }

      .cls-7 {
        fill: #649d50;
      }

      .cls-8 {
        fill: #878a8e;
      }

      .cls-9 {
        fill: #f08d35;
      }

      .cls-10 {
        fill: #3d7b9a;
      }

      .cls-11 {
        fill: #89c75b;
      }
    </style>
  </defs>
  <g id="Calque_1-2" data-name="Calque 1">
    <g id="Logo_vecto" data-name="Logo vecto">
      <circle cx="152.56" cy="153.02" r="150.93"/>
      <path class="cls-5" d="M255.17,61.65c-1.59-1.75-7.36-8.39-9.46-6.95-.5.35-4.05,9.92-4.06,11.45-.01,2.25,1.58,7.3,2.52,9.5,1.36,3.17,3.59,4.96,4.49,8-9.16-1.13-15.28-13.5-14.01-21.98-3.76,1.33-.79,7.03-1.1,8.42-.92,4.18-10.75.05-13.22-1.6-2.86-1.9-6.11-7.26-7.18-7.82-1.72-.91-1.76,2.71-2.9,4.07-5.75,6.81-15.07,4.13-20.02-2.15-8.38-10.61-11.08-26.96,6.43-27.94-.81-2.22-3.13-12.77-3.98-13.51-1.35-1.17-14.05-3.68-16.84-4.16-16.2-2.83-31.97-3.16-48.18-.31.62,1.92,6.21,10.65,4.99,11.99-4.25-2.2-11.77-1.02-15.34-2.15-4.13-1.32.53-9.51-12.88-3.59-33.28,14.71-55.17,30.31-73.58,62.43-13.3,23.23-18.53,50.64-17.18,77.31,0,0,0-.01.01-.02.14-.42,2.69-7.2,14.72-7.55,6.45-.19,9.23,2.93,10.42,5.98h0c.69,1.44,1.02,3.18.85,5.26-.01.21-.02.33-.02.33-2.87-.58-4.2-1.9-7.46-2.07-6.4-.32-11.02,2.96-13.13,7.44-2.46,5.19-1.56,11.98,3.81,16.64.06.06.12.11.18.16.22.2.45.39.68.54.32.25.65.49,1,.72,4.56,3.02,14.93,2.7,16.05,4.19.99,1.33.28,3.62-.89,6.19-1.66,3.63-4.24,7.82-4.25,10.69,0,1.34.23,2.63.66,3.85,2.02,5.77,8.37,9.72,14.44,7.79.83-.26,1.65-.63,2.45-1.12.69-.42,1.99-2,3.38-3.65,1.89-2.26,3.95-4.66,4.87-4.47.08.01.16.05.22.11-.2.3-.38.6-.56.89,0,0,0,.01-.01.02-2.63,4.57-1.93,8.56.17,12.14,0,.02.02.05.03.07,1.03,1.75,2.38,3.4,3.83,4.98.01.01.02.02.03.03,3.98,4.31,8.66,8.05,9.31,11.62.67,3.69-1.5,5.79-1.85,9.68-.12,1.29-.15,2.47-.09,3.54.1,1.83.47,3.36,1.2,4.61,1.14,1.94,3.13,3.2,6.3,3.89.44.09.91.18,1.4.25,8.12,1.2,11.03-1.27,13.67-4.28,2.57-2.95,4.88-6.42,11.56-7.45.15.63.16,1.23.08,1.81-.3,2.21-1.89,4.13-2.11,6.25-.01.14-.02.29-.02.43v.06c0,.1,0,.21.01.31,0,.01,0,.02.01.04.25,4.76,5.55,7.7,9.86,10.08,1.07.6,2.09,1.16,2.95,1.7.81.51,1.73,1.03,2.7,1.56.41.23.83.45,1.25.66.31.17.63.34.95.5.97.49,1.95.99,2.89,1.5,1.89,1.02,3.65,2.05,4.91,3.09,1.91,1.57,4.51,5.73,5.7,7.35.27.38.47.63.56.66,9.54,3.6,38.05-.47,48.7-3.07,98.31-24.03,139.16-149.5,70.08-224.94ZM242.48,115.82c.41.67.44,3.09.04,3.71-.43.69-11.97,5.02-14.78,6.71-6.46,3.89-11.84,10.13-18.39,13.19-9.81-3.72,2.74-12.92,7.62-15.96,3.54-2.21,16.05-8.49,19.68-9.4,1.21-.3,5.45,1.12,5.83,1.75ZM195.76,169c-1.76-5.44,17.41-15.44,21.65-16.18,3.17-.55,6.57,2.18,5.11,4.71-.15.26-3.49,2.04-4.89,3.61-2.22,2.48-3.99,5.35-5.95,8.03,3.71.13,11.44-8.93,14.51-4.54.89.86.61,2.08-.01,3.05-.85,1.36-12.08,9.34-14.53,11.47-2.71,2.35-8.16,9.77-11.25,9.37-10.41-1.35,5.25-14.02,5.25-18.85-.43-.42-8.21,4.5-9.89-.67ZM207.58,98.11c2.32-3.07,19.65-10,23.7-10.4,3.09-.31,8.5,1.88,6.34,4.9-.12.18-2.7.65-3.91,1.59-3.95,3.07-8.03,6.39-11.05,10.45,3.79.49,13.98-7.86,16.56-4.05,2.87,4.23-5.75,6.82-9.08,9.04-4.19,2.78-13.38,10.79-16.73,12.26-3.37,1.48-8.28.83-7.62-3.51.23-1.52,8.94-11.15,10.85-13.26.75-.83,1.88-1.43,3.01-1.48-.49-2.14-4.82.78-6.6.96-4.49.45-8.32-2.74-5.47-6.5ZM149.55,94.72c-.4-.4-2.72.53-2.96-.61-.82-4.02,3.29-23.12,8.98-19.35.85.56,1.48,10.46,2.35,13.14.69,2.1,2.39,3.38,2.7,4.31.64,1.89-1.98,1.32-2.03,1.99-.09,1.11,1.75,4.05,1.99,6.04,1.15,9.33-.03,23.71,7.08,30.42.59-6.13-.8-13.56,0-19.5,1.08-8.02,14.81-37.43,25.48-26.48,2.81,2.88-1.34,14.95-2.62,15.84-.78.54-2.73-.02-3.86.13,5.22-18.7-3.72-3.42-6.48,4.03-2.59,7-6.02,23.96-1.04,29.99,4.67,5.64,18.07-8.51,14.52-15.01-2.65-1.28-6.92,2.11-8.36,1.86-2.22-.39-3.54-5.02-2.48-6.71,1.28-2.05,18.84-7.75,21.87-5.67,3.31,2.28-.91,3.59-1.57,5.45-1.3,3.68-2.27,13.42-2.45,17.58-.31,7.01.6,13.56.98,20.49-6.96.27-6.49-10.86-7-16-.77-.91-10.29,8.34-18.91,3.42-2.69-1.54-3.7-5.57-8.08-4.41-.94,3.79,3.48,3.76,4.99,6.5l-4.99,1.5.98,3.95c-4.58.32-20.45,13.42-23.83,7.89-.42-.69-.41-3.98.02-4.69,1.18-1.93,19.17-7.33,19.83-8.17.77-.99-.83-2.97-2.46-3-3.56-.06-12.51,8.55-17.3,3.77-5.55-5.53,6.54-46.78,4.65-48.7ZM139.72,121.1c2.52,1.73-1.48,13.16-2.07,13.56-5.71,3.8-6.41-19.39,2.07-13.56ZM112.63,140.05c.17-2.44-1.17-4.54-1.01-6.84.43-6.33,2.3-24.21,4.76-29.31,1.63-3.42,7.22-1.25,7.38,4.25.27,8.85-4.16,20.52-5.09,29.51.4.45,10.52-3.75,11.05,1.5.44,4.45-4.93,3.36-8.34,4.72-2.04.82-7.86,4.62-8.33,4.69-4.65.71-.54-6.71-.42-8.52ZM97.78,132.28c.61-7.46,2.58-21.49,4.34-28.66.9-3.66,2.94-10.57,7.56-5.47,3.42,3.77-2.36,32.23-3.01,39.02-.52,5.42-.72,11.04-1,16.49,1.18,1.33,29.21-15.01,30.03-1.52.19,3.18-3.55.47-5.57.48-3.23.02-20.82,8.13-24.83,10.18-3.89,1.98-13,9.98-16.7,7.42-2.7-1.87.67-5.57.76-7.84.11-2.55-1.61-6.46-1.68-9.24-.14-4.94-.82-14.66-.02-18.98.67-3.65,4.1-2.37,7-2.5v27h3c.39-8.66-.58-17.76.12-26.38ZM93.11,105.65c6.02.91,2.33,10.24,1.94,14.69-.16,1.85,1.87,5.16-1.84,5.3-.78.03-2.75-.65-3.31-1.23-2.3-2.36-4.34-19.91,3.21-18.76ZM52.66,129.66c1.4.01,2.94-.22,4.3.2,4.37,1.34,6.49,21.84,8.42,26.58l4.27,9.21c2.96-19.14,3.02-39.34,8.51-57.99.75-2.54,3.51-11.7,4.99-13.01,1.77-1.56,5.68-1.67,6.43.65.36,1.12-3.21,11.14-3.76,14.02-4.19,21.92-5.01,45.48-8.37,67.63-1.39,5.72-7.94,5.7-11.74,2.16-5.17-4.84-16.09-46.51-13.05-49.45ZM84.48,233.34c-1.93-4.79-8.79-26.63,1.48-23.5,3.31,1.01,4.04,11.98,5.19,15.83.36,1.2,5.03,14.84,7.5,11.99,2.72-15.75,3.63-31.73-2-47-1.44-1.08-10.31,7.57-13.58,7.98-2.85.37-8.03-.63-7.24-4.34.55-2.57,17.42-14.11,21.03-14.97,3.37-.8,9.97.3,7.64,4.2-.34.57-2.92.26-2.75,2.47.09,1.08,2.66,4,3.39,5.68,5.58,12.76,7.63,29.44,4.05,43.01-4.41,16.71-18.85,13.21-24.71-1.35ZM145.46,207.38c-.53.76-12.5,7.87-15.27,10.31-2.94,2.58-10.28,12.03-13.06,11.94-8.17-.27.09-11.32,3.05-13.95,2.44-2.16,16.12-11.38,18.76-12.27,2.86-.96,4.09-.04,6.73-.26-1.15-2.44-2.9-9.32-6.32-8.37-5.22,1.46-17.61,17.57-21.73,19.42-1.43.63-2.35.39-3.71-.2-6.69-2.88,5.31-13.24,6.74-16.86,1.29-3.26-4.41.62-6.25.35-14.41-2.11,15.07-21.25,21.23-18.35,5.65,2.65-3.51,7.34-5.49,9.5-1.57,1.71-3.63,4.65-3.99,7,1.5-2.19,12.98-5.5,13.37-6.12,1.6-2.47-3.22-14.59,5.48-11.72,4.15,1.37,4.55,19.06,8.16,22.86,4.65,4.89,4.64-6.29,4.54-9.54-.1-3.45-2.9-20.07-.9-21.32,5.18-3.26,6.62,4.46,7.4,7.82,2.21,9.66,4.07,35.97-12.6,30.59-2.5-.81-3.45-3.8-5.94-3.55-.01.83.24,2.07-.2,2.72ZM146.76,217.96c-1.3-5.17,15.74-9.68,19.69-10.11,3.56-.39,5.46,1.09,5.21,4.8-5.16-.72-22.88,13.33-24.9,5.31ZM198.14,213.66c-5.45,1.55-6.97-12.5-8.28-15.7-1.95-4.8-8.56-11.84-12.38-15.62-.88-.86-.85-2.19-2.81-1.68l4.9,25.42c-3.21,4.11-5.66-.59-7.1-3.73-1.53-3.35-8.16-28.53-7.83-31.14,1.3-10.13,16.26,3.3,19.01,6.45,1.2-6.28-7.62-28.69,5.49-20.98l10.35,53.73c.54,1.15-.37,2.97-1.35,3.25ZM201.65,203.27c-8.37-2.14,3.48-13.05,6.53-15.59,2.71-2.25,16.29-11.04,19-10.99,2.13.04,4.38,3.07,3.35,4.85-.46.8-12.47,7.71-15.34,10.15-2.71,2.29-10.75,12.3-13.54,11.58ZM245.36,190.86c-2.02,1.31-17.07,9.25-15.7,3.31.48-2.08,12.72-4.39,12.05-11-.14-1.4-7.39-6.86-9.24-9.82-3.3-5.25-5.69-14.28-2.68-20.06,1.62-3.12,6.47-4.28,7.87-8.13,1.71-1.7,7,.41,7,2,0,2.82.75,19.8,0,20.5-1.57,1.48-4.98-.92-5.51-2.99-3.84.01,1.67,8.44,2.51,9.49,4.67,5.85,16.16,8.57,3.7,16.7Z"/>
      <g>
        <path class="cls-5" d="M30.65,212.66c-4.18-.02-5.57-3.82-6.99-6.99,4.3-.67,7.68,2.61,6.99,6.99Z"/>
        <path class="cls-5" d="M153.67,133.66c-.56-.56.79-7.63,1.49-8.99,4.7,2.34,1.7,12.2-1.49,8.99Z"/>
        <path class="cls-5" d="M155.66,93.65h-4.99c.41-10.17,6.56-1.51,4.99,0Z"/>
      </g>
      <path class="cls-9" d="M136.15,292.3c-83.4-3.24-112.49-81.36-112.49-81.36,2.23-.51,6.79.17,6.79.17-.68-6.81-6.79-5.44-6.79-5.44-17.68-11.22-9.99-43.01-9.99-43.01,0,0,0-.01.01-.02.14-.42,2.69-7.2,14.72-7.55,6.45-.19,9.23,2.93,10.42,5.98h0c.87,2.25.88,4.44.85,5.26-.01.21-.02.33-.02.33-2.87-.58-4.2-1.9-7.46-2.07-6.4-.32-11.02,2.96-13.13,7.44-1.38,3.76-1.58,9.69,2.71,15.42.34.45.71.86,1.1,1.22.06.06.12.11.18.16.22.2.45.39.68.54,6.55,4.85,18.31,1.1,18.46,5.4.06,1.68-1.01,3.58-2.3,5.7-1.66,3.63-4.24,7.82-4.25,10.69,0,1.34.23,2.63.66,3.85,2.11,5.28,9.24,8.39,14.44,7.79.83-.26,1.65-.63,2.45-1.12.69-.42,1.99-2,3.38-3.65,2.47-5.87,5.37-5.58,5.37-5.58,0,0-.22.37-.5,1.11-.11.28-.22.61-.34,1,0,0,0,.01-.01.02-.53,1.83-1.07,4.82-.69,8.95.11,1.14.41,2.2.86,3.19,0,.02.02.05.03.07.87,1.87,2.26,3.49,3.83,4.98.01.01.02.02.03.03,2.87,2.71,6.34,4.99,8.36,7.56,3.48,4.43.06,11.64-.99,17.28.1,1.83.47,3.36,1.2,4.61,1.4,1.54,3.7,2.95,6.3,3.89.44.09.91.18,1.4.25,8.12,1.2,11.03-1.27,13.67-4.28,4.97-9.09,13.31-7.62,13.31-7.62,0,0-.81.7-1.67,1.98-.3,2.21-1.89,4.13-2.11,6.25-.01.14-.02.29-.02.43v.06c0,.1,0,.21.01.31,0,.01,0,.02.01.04.29,3.17,4.41,6.67,9.86,10.08,1.77,1.11,3.68,2.2,5.65,3.26.41.23.83.45,1.25.66.31.17.63.34.95.5.96.52,1.93,1.01,2.89,1.5.52.28,1.05.54,1.57.8,6.13,3.07,8.3,6.94,9.04,9.64.53,1.95.32,3.3.32,3.3Z"/>
      <path class="cls-6" d="M133.09,292.3s3.7-10.34,12.51-14.43,32.43-8.04,42.89-18.38,12.26-23.11,12.26-23.11c0,0,.64-9.32,6.38-14.68s17.62-8.43,24.51-9.06,23.87-5.62,34.98-30.89,10.85-25.79,25.4-30.77-3.06,156.55-158.94,141.32Z"/>
      <path class="cls-10" d="M113.09,292.3s.04-24.51,11.91-31.66,24.89-4.98,38.55-19.66,16.09-31.02,16.09-31.02c0,0-1.91-12,4.85-16.98s13.53-4.44,13.53-4.44c0,0,27.19,1.54,44.17-17.82,0,0,8.3-8.64,9.96-16.42s8.55-22.09,36.51-25.4l2.55,13.53s-14.43,1.28-24.51,17.74-5.23,18.77-13.53,30.64-19.91,13.66-24.76,13.79-20.09,3.32-26.26,10.34-7.96,12.64-8.85,17.36-1.79,13.79-8.3,20.43-15.96,9.96-30.64,13.4-37.4,26.17-37.4,26.17h-3.87Z"/>
      <g>
        <g>
          <path class="cls-11" d="M24.87,118.8l-.45-22.47s2.92,4.81,5.28,7.14c-1.18,3.56-4.83,15.32-4.83,15.32Z"/>
          <path class="cls-11" d="M30.51,100.3s-5.78-5.48-6.08-6.78,5.65-12.45,5.65-12.45c0,0,4.72,4.37,5.15,4.54-2.72,8.11-4.72,14.69-4.72,14.69Z"/>
          <path class="cls-11" d="M36.55,83.18s-4.47-3.28-4.77-4.51,15.32-19.62,15.32-19.62c0,0-10.26,21.45-10.55,24.13Z"/>
          <path class="cls-7" d="M32.44,105.52l-3.06,9.4,8.17-8s-2.81-.17-5.11-1.4Z"/>
          <path class="cls-7" d="M33.04,102.54s4.21,2.85,8.43,2c0,0,10.55-7.19,15.96-8.38,0,0-11.4,8.51-8.68,11.19s20.32-10.81,19.7-20.81c0,0-17.28,4.23-31.51,1.87,0,0-3.31,9.3-3.89,14.13Z"/>
          <path class="cls-7" d="M45.71,71.39s-5.43,8.74-6.57,14.62c0,0,24.13,2.62,30.96-5.23,0,0,.96-5.3,0-9.38,0,0-13.09,2.49-24.38,0Z"/>
          <path class="cls-7" d="M47.1,68.45s12.61,2.36,23.41.96c0,0,.72-10.53.28-14.94,0,0-7.02-2.94-14.23-1.66,0,0-6.47,6.7-9.46,15.64Z"/>
          <path class="cls-7" d="M70.94,52.11s-7.64-3.45-12.93-2.68,12.93-10.02,12.93-10.02c0,0,.68,6.7,0,12.7Z"/>
        </g>
        <g>
          <g>
            <path class="cls-11" d="M169.8,35.7s-12.64-9.43-18.61-11.95c1.46,2.47,1.94,4.84,2.76,8.09,3.71.81,15.85,3.86,15.85,3.86Z"/>
            <path class="cls-11" d="M151.52,31.09s-1.71-7.95-2.78-8.78c-14.57-11.37-19.11-7.35-19.11-7.35,0,0,6.73,12.23,6.66,12.69,8.46,1.8,15.22,3.45,15.22,3.45Z"/>
            <path class="cls-11" d="M133.51,27.54s-5.51-11.57-6.43-12.46c-.58-.56-13.6.06-16.02,1.91,4.79,4.85,6.26,9.51,6.26,9.51,0,0,13.71-.09,16.19,1.03Z"/>
            <path class="cls-7" d="M155.07,35.46l9.76,2.17-11.17,3s1.3-2.53,1.41-5.17Z"/>
            <path class="cls-7" d="M152.17,34.45s.31,5.13-2.59,8.36c0,0-11.69,5.49-15.51,9.58,0,0,13.28-5.55,14.21-1.8s-19.87,12.13-28.25,6.44c0,0,12.58-12.86,17.84-26.47,0,0,9.8,1.91,14.3,3.88Z"/>
            <path class="cls-7" d="M118.53,29.45s10.4-.22,16.11,1.8c0,0-10.14,22.35-20.49,24.26,0,0-5.1-1.89-8.17-4.83,0,0,8.9-10.11,12.55-21.23Z"/>
            <path class="cls-7" d="M115.25,29.15s-4.43,12.19-11.22,20.88c0,0-9.54-4.79-13.15-7.45,0,0,1.06-7.62,5.88-13.25,0,0,9.16-2.18,18.48-.19Z"/>
            <path class="cls-7" d="M88.76,41.49s.93-8.42,4.32-12.64-15.38,6.1-15.38,6.1c0,0,5.49,4.04,11.06,6.54Z"/>
          </g>
          <path class="cls-11" d="M114.57,26.51s-18.13-.89-21.64,0,15.83-7.21,15.83-7.21c0,0,3.4.26,5.81,7.21Z"/>
        </g>
      </g>
      <path class="cls-3" d="M276.09,84.5c-.05.7-.37,1.18-.98,1.4-1.52.55-3.32.98-5.32,1.25.54.11,1.08.19,1.64.24-5.88,1.13-13.87.87-20.85-1.28-5.56-1.71-10.48-4.63-13.19-9.02-5.98-9.69-2.24-19.19-1.81-20.21-3.17,5.89-1.32,15.74-1.32,15.74-17.14-.33-21.11-9.56-22.03-13.65.08,2.23-.6,5.94-5.2,8.46-6.98,3.83-13.71.09-19.75-8.47s-5.78-16.72,0-22.59c5.07-5.14,10.13-1.28,11.32-.24-7.93-7.61-4.75-16.24-4.75-16.24,14.36-1.75,37.02,13.95,54.93,30.57.09.08.18.17.27.25,1.95,1.81,3.84,3.63,5.66,5.44,12.2,12.14,21.04,23.77,21.38,28.35Z"/>
      <path class="cls-8" d="M276.09,84.5c-.05.7-.37,1.18-.98,1.4-1.52.55-3.32.98-5.32,1.25-5.67.79-12.86.41-19.21-1.55-5.6-4.49-9.12-11.05-9.12-18.36,0-6.49,2.78-12.38,7.32-16.78.09.08.18.17.27.25,1.95,1.81,3.84,3.63,5.66,5.44,12.2,12.14,21.04,23.77,21.38,28.35Z"/>
      <path class="cls-1" d="M276.09,84.5c-.05.7-.37,1.18-.98,1.4-1.52.55-3.32.98-5.32,1.25-9.51-1.85-16.72-11.05-16.72-22.12,0-3.16.59-6.16,1.64-8.88,12.2,12.14,21.04,23.77,21.38,28.35Z"/>
      <g>
        <path class="cls-2" d="M167.66,111.16c1.08-8.02,14.81-37.43,25.48-26.48,2.82,2.89-1.34,14.95-2.62,15.84-.78.54-2.73-.02-3.85.14,5.22-18.7-3.73-3.42-6.48,4.03-2.59,7-6.02,23.96-1.04,29.99,4.66,5.64,18.07-8.51,14.52-15.01-2.65-1.27-6.92,2.12-8.36,1.86-2.22-.39-3.55-5.02-2.48-6.71,1.28-2.05,18.84-7.75,21.87-5.67,3.31,2.28-.91,3.59-1.56,5.45-1.3,3.69-2.27,13.42-2.45,17.58-.31,7.01.61,13.56.99,20.48-6.97.27-6.5-10.86-7-15.99-.77-.91-10.3,8.33-18.92,3.42-2.69-1.54-3.7-5.57-8.07-4.41-.94,3.79,3.48,3.76,4.99,6.51l-4.99,1.49.98,3.95c-4.58.32-20.45,13.42-23.83,7.89-.42-.69-.41-3.98.02-4.69,1.18-1.93,19.16-7.33,19.83-8.17.77-.99-.83-2.97-2.45-3-3.57-.07-12.51,8.55-17.31,3.77-5.55-5.53,6.54-46.78,4.65-48.7-.4-.4-2.72.53-2.96-.61-.82-4.02,3.29-23.12,8.98-19.36.85.56,1.48,10.47,2.35,13.14.69,2.1,2.39,3.38,2.7,4.31.64,1.88-1.98,1.32-2.04,1.99-.09,1.11,1.75,4.04,2,6.03,1.15,9.33-.04,23.72,7.08,30.42.59-6.13-.8-13.56,0-19.5ZM155.66,93.65c1.57-1.51-4.58-10.17-4.99,0h4.99ZM153.67,133.66c3.19,3.21,6.19-6.65,1.49-8.99-.7,1.36-2.05,8.43-1.49,8.99Z"/>
        <path class="cls-2" d="M145.66,204.66c-.02.83.24,2.07-.21,2.72-.52.76-12.5,7.87-15.27,10.3-2.94,2.58-10.28,12.04-13.05,11.94-8.17-.27.08-11.32,3.05-13.95,2.44-2.16,16.12-11.38,18.76-12.27,2.86-.96,4.08-.04,6.73-.26-1.15-2.44-2.89-9.32-6.32-8.37-5.22,1.45-17.61,17.57-21.73,19.41-1.43.64-2.36.39-3.71-.19-6.69-2.88,5.31-13.25,6.74-16.86,1.29-3.27-4.41.62-6.25.35-14.4-2.11,15.07-21.25,21.24-18.35,5.64,2.65-3.51,7.34-5.49,9.5-1.57,1.71-3.63,4.65-3.99,7,1.5-2.19,12.98-5.5,13.38-6.12,1.6-2.48-3.22-14.6,5.48-11.72,4.15,1.37,4.55,19.06,8.16,22.86,4.65,4.89,4.64-6.29,4.54-9.54-.1-3.45-2.9-20.07-.9-21.32,5.18-3.26,6.63,4.46,7.4,7.83,2.22,9.66,4.08,35.97-12.59,30.59-2.5-.81-3.45-3.8-5.94-3.55Z"/>
        <path class="cls-2" d="M52.66,129.66c1.4.02,2.94-.22,4.3.2,4.37,1.35,6.49,21.84,8.41,26.59l4.27,9.21c2.96-19.14,3.02-39.35,8.51-57.99.75-2.54,3.51-11.7,4.99-13.01,1.77-1.56,5.69-1.67,6.43.64.36,1.12-3.21,11.14-3.76,14.02-4.19,21.92-5.02,45.48-8.37,67.63-1.39,5.72-7.94,5.71-11.73,2.16-5.18-4.84-16.1-46.5-13.05-49.45Z"/>
        <path class="cls-2" d="M104.5,183.53c-.34.57-2.93.26-2.75,2.47.09,1.08,2.66,4,3.39,5.67,5.58,12.76,7.63,29.45,4.05,43.01-4.41,16.71-18.85,13.21-24.71-1.35-1.93-4.79-8.79-26.63,1.48-23.5,3.31,1.01,4.04,11.98,5.19,15.83.36,1.2,5.02,14.84,7.5,11.99,2.72-15.75,3.63-31.72-2.01-46.99-1.44-1.08-10.31,7.57-13.57,7.98-2.85.36-8.04-.64-7.24-4.34.55-2.57,17.42-14.11,21.03-14.97,3.37-.8,9.97.3,7.65,4.2Z"/>
        <path class="cls-2" d="M94.66,158.66h3c.4-8.66-.58-17.76.13-26.38.61-7.46,2.58-21.5,4.34-28.66.9-3.66,2.94-10.58,7.56-5.48,3.42,3.78-2.36,32.23-3.01,39.02-.52,5.42-.72,11.05-1,16.49,1.19,1.33,29.21-15,30.03-1.52.19,3.18-3.55.47-5.56.48-3.23.02-20.82,8.13-24.83,10.18s-13,9.98-16.7,7.42c-2.7-1.87.67-5.57.76-7.84.1-2.55-1.61-6.46-1.69-9.24-.13-4.94-.82-14.67-.02-18.99.67-3.65,4.1-2.36,7-2.5v27Z"/>
        <path class="cls-2" d="M174.67,180.66l4.91,25.42c-3.21,4.11-5.67-.59-7.1-3.73-1.53-3.35-8.16-28.53-7.83-31.13,1.3-10.13,16.26,3.3,19.01,6.44,1.2-6.28-7.62-28.69,5.49-20.98l10.35,53.73c.54,1.14-.37,2.96-1.35,3.24-5.45,1.55-6.98-12.5-8.28-15.7-1.95-4.8-8.56-11.84-12.39-15.61-.88-.87-.84-2.19-2.81-1.68Z"/>
        <path class="cls-2" d="M237.62,92.61c-.12.17-2.7.65-3.91,1.58-3.96,3.07-8.03,6.39-11.05,10.45,3.79.49,13.98-7.86,16.56-4.05,2.87,4.23-5.75,6.82-9.08,9.04-4.19,2.78-13.38,10.79-16.73,12.26s-8.28.83-7.62-3.51c.23-1.52,8.94-11.15,10.85-13.25.75-.83,1.88-1.44,3.01-1.49-.49-2.14-4.82.78-6.6.96-4.49.45-8.33-2.74-5.47-6.5,2.32-3.07,19.65-9.99,23.7-10.4,3.1-.31,8.51,1.88,6.35,4.91Z"/>
        <path class="cls-2" d="M244.66,167.66c-1.57,1.48-4.98-.92-5.51-2.99-3.84.01,1.67,8.45,2.51,9.49,4.67,5.85,16.16,8.57,3.7,16.7-2.02,1.31-17.07,9.25-15.69,3.32.48-2.09,12.72-4.4,12.05-11.01-.14-1.4-7.39-6.86-9.25-9.81-3.3-5.25-5.69-14.29-2.68-20.07,1.62-3.12,6.47-4.28,7.87-8.13,1.71-1.7,7,.42,7,2,0,2.82.75,19.8,0,20.5Z"/>
        <path class="cls-2" d="M222.52,157.53c-.15.26-3.49,2.04-4.89,3.61-2.22,2.48-3.99,5.36-5.95,8.03,3.71.13,11.44-8.93,14.51-4.54.89.87.6,2.08-.01,3.06-.86,1.36-12.08,9.33-14.54,11.46-2.7,2.35-8.15,9.78-11.24,9.38-10.41-1.35,5.24-14.03,5.25-18.86-.43-.42-8.22,4.51-9.89-.67-1.76-5.44,17.4-15.44,21.65-16.18,3.17-.55,6.57,2.18,5.11,4.71Z"/>
        <path class="cls-2" d="M118.67,137.66c.41.45,10.53-3.75,11.05,1.51.44,4.44-4.93,3.36-8.34,4.72-2.05.82-7.86,4.62-8.34,4.69-4.65.71-.54-6.71-.41-8.53.17-2.44-1.17-4.53-1.01-6.84.43-6.33,2.3-24.2,4.76-29.31,1.64-3.41,7.22-1.25,7.39,4.25.27,8.85-4.16,20.52-5.1,29.51Z"/>
        <path class="cls-2" d="M242.48,115.82c.41.67.43,3.09.04,3.71-.44.68-11.98,5.02-14.78,6.71-6.46,3.89-11.84,10.13-18.39,13.19-9.81-3.71,2.74-12.92,7.62-15.96,3.54-2.21,16.05-8.49,19.68-9.4,1.21-.3,5.45,1.12,5.83,1.75Z"/>
        <path class="cls-2" d="M230.53,181.54c-.46.8-12.47,7.71-15.35,10.15-2.7,2.3-10.75,12.3-13.54,11.59-8.36-2.14,3.49-13.06,6.54-15.59,2.7-2.25,16.28-11.04,19-11,2.12.04,4.38,3.07,3.35,4.85Z"/>
        <path class="cls-2" d="M171.66,212.65c-5.16-.72-22.88,13.33-24.9,5.31-1.3-5.18,15.74-9.68,19.69-10.12,3.56-.39,5.46,1.1,5.21,4.8Z"/>
        <path class="cls-2" d="M89.9,124.41c-2.3-2.36-4.34-19.91,3.21-18.77,6.02.91,2.33,10.24,1.94,14.69-.16,1.84,1.86,5.16-1.84,5.3-.79.03-2.75-.66-3.31-1.23Z"/>
        <path class="cls-2" d="M137.65,134.66c-5.71,3.8-6.4-19.39,2.08-13.56,2.51,1.73-1.48,13.16-2.08,13.56Z"/>
      </g>
      <path class="cls-4" d="M152.66,0C68.35,0,0,68.35,0,152.66s68.35,152.66,152.66,152.66,152.66-68.35,152.66-152.66S236.97,0,152.66,0ZM151.68,291.08c-76.39,0-138.32-61.93-138.32-138.33S75.29,14.42,151.68,14.42s138.33,61.93,138.33,138.33-61.93,138.33-138.33,138.33Z"/>
    </g>
  </g>
</svg>