<?xml version="1.0" encoding="UTF-8"?>
<svg id="Calque_1" data-name="Calque 1" xmlns="http://www.w3.org/2000/svg" viewBox="0 0 198 170">
  <defs>
    <style>
      .cls-1 {
        fill: #fff;
      }
    </style>
  </defs>
  <rect x="-578" y="-9" width="825" height="190"/>
  <path class="cls-1" d="M114.04,88.37c5.19-1.95,9.09-2.41,12.71.14,3.13,2.2,4.12,4.67,3.7,9.05-1.36,14.39-9.8,25.86-14.82,38.7-2.03,5.2-3.01,9.58,1.69,13.37,3.82,3.08,2.69,7.97,4.79,11.73,1.09,1.95-1.53,2.6-3.54,2.1-3.73-.95-6.99-2.82-10.07-5.06-2.21-1.61-4.16-3.67-6.89-4.36-1.11.71-1.13,1.76-.9,2.67.99,3.91-.55,6.69-3.95,8.37-3.18,1.57-6.79,2.07-9.7-.12-2.87-2.16-2.36-6.36-1.29-8.65,4-8.55.28-15.42-3.5-22.5-2.25-4.21-4.47-8.45-6.66-12.7-1.01-1.97-1.93-4.28-4.1-4.93-6.17-1.85-6.11-6.39-5.4-11.36.56-3.88,1.97-7.62,1.04-11.74-.35-1.57.59-3.71,2.33-4.57,9.11-4.52,7.79-12.35,6.45-20.13-.71-4.15-3.07-7.26-6.8-9.31-4.01-2.21-7.84-4.82-12.01-6.65-12.71-5.58-24.93-12.23-36.15-20.21-4.27-3.03-8.49-5.91-13.09-8.34-1.79-.95-3.75-2.08-.99-4.17,1.16-.88.79-1.69-.08-2.36-3.65-2.84-1.89-7.86-4.56-11.18-.96-1.2-.67-3.46.99-4.13,2.27-.92,2.37,1.53,2.98,2.79,5.83,11.96,16.11,17.74,28.38,21.26,6.64,1.9,12.87,5.15,19.33,7.66,7.62,2.96,15.23,5.24,23.28,6.37,2.67.37,6.81,2.32,7.66,1.32,2.32-2.73,3.5-6.47,5.93-9.39.67-.8.4-2.33.74-3.46,1.53-5.04,6.34-8.22,11.44-7.63,5.36.62,9.04,4.97,9.55,10.51.35,3.73,1.3,7.43,2.22,11.08.62,2.43,2.8,2.31,4.85,2.51,18.66,1.85,36.63-3.53,54.96-5.15,7.7-.68,11.21-6.49,14.35-12.67.82-1.62-.05-5.74,3.1-4.33,1.94.87,3.38,5.59,2.08,7.35-3.53,4.76-4.86,10.47-7.88,15.36-2.23,3.6-6.32,4.48-9.72,5.03-16.64,2.66-31.87,9.9-48.01,14.12-6.09,1.59-8.76,6.56-10.83,11.83-1.36,3.45-2.21,7.1-3.63,11.8ZM90,123.56c-.79,9.24,5.61,15.93,8.2,23.93.77,2.37,3.79,2.63,4.68-.53,2.32-8.27,6.9-15.96,6.62-25.19-6.47,2.74-13.12,1.12-19.5,1.79Z"/>
</svg>