<?xml version="1.0" encoding="UTF-8"?>
<svg id="Calque_1" data-name="Calque 1" xmlns="http://www.w3.org/2000/svg" xmlns:xlink="http://www.w3.org/1999/xlink" viewBox="0 0 198 170">
  <defs>
    <style>
      .cls-1 {
        fill: #218fcd;
        opacity: .64;
      }

      .cls-2 {
        fill: none;
      }

      .cls-3 {
        clip-path: url(#clippath);
      }
    </style>
    <clipPath id="clippath">
      <circle class="cls-2" cx="-292.75" cy="-324.25" r="220.02"/>
    </clipPath>
  </defs>
  <g class="cls-3">
    <path class="cls-1" d="M172.19-318.85c-24.38-7.05-48.79-14.04-73.19-21.02-37.9-10.84-75.85-21.52-113.67-32.65-6.33-1.86-9.24-.85-10.86,5.66-1.29,5.19-4.46,9.58-7.87,13.86-10.43,13.1-25.3,19.57-39.58,26.72-14.62,7.32-25.12,17.79-30.31,33.44-1.69,5.09-3.94,9.99-5.76,15.04-4.54,12.58-12.42,23.01-21.32,32.7-10.93,11.89-25.23,16.27-40.82,17.93-21.38,2.27-39.4,10.5-42.76,37.62-.47,3.81-1.73,7.58-3.04,11.23-4.44,12.38-11.98,21.82-22.93,29.84-14.55,10.65-31.03,14.95-47.72,19.22-13.64,3.49-24.58,10.33-32.44,22.07-3.97,5.93-8.09,11.77-12.28,17.55-9.76,13.48-20.48,26.02-37.84,29.39-6.29,1.22-7.38,3.41-6.35,9.41,10.74,62.7,21.19,125.45,31.74,188.18.71,4.21,1.6,8.39,2.41,12.58,6.82-16.88,11.3-33.82,18.11-49.95,2.49-5.9,3.65-11.82,2.91-18.14-7.3-18.55-9.73-37.89-9.34-57.69.05-1.3.1-2.59.15-3.89-.04-.55-.07-1.11-.11-1.66,1.31-.03,1.38.76,1.15,1.74.22,1.27.43,2.54.64,3.81,3.52,19.11,6.73,38.26,7.93,57.69,6.03,1.13,5.68-4.41,7.02-7.37,10.63-23.49,23.11-45.74,37.08-67-.53,10.15,1.7,18.49,7.04,24.49,26.81,30.1,121.43-10.42,211.34-90.5C31.43-138.65,82.58-227.97,55.77-258.07c-5.32-5.97-13.31-9.15-23.39-9.81,4.36-2.26,8.74-4.49,13.14-6.68,22.35-11.13,45.96-19.76,69.33-27.29,17.75-5.72,37.21-9.89,56.53-11.39,2.73-.21,5.98.32,8.11-2.52-1.99-2.4-4.83-2.36-7.29-3.08ZM-318.59-13.73c-2.19-9.06-2.9-18.06-1.62-27.13,2.7,8.96,2.8,18.07,1.62,27.13ZM30.91-320.57c25.45.11,49.98,4.8,73.33,15.42-24.44-5.14-48.89-10.28-73.33-15.42ZM108-304.36c-.26-.06-.63-.03-.76-.19-.13-.16-.01-.51,0-.78.28.06.65.03.78.19.12.16,0,.51-.02.78Z"/>
  </g>
  <path d="M114.04,88.37c5.19-1.95,9.09-2.41,12.71.14,3.13,2.2,4.12,4.67,3.7,9.05-1.36,14.39-9.8,25.86-14.82,38.7-2.03,5.2-3.01,9.58,1.69,13.37,3.82,3.08,2.69,7.97,4.79,11.73,1.09,1.95-1.53,2.6-3.54,2.1-3.73-.95-6.99-2.82-10.07-5.06-2.21-1.61-4.16-3.67-6.89-4.36-1.11.71-1.13,1.76-.9,2.67.99,3.91-.55,6.69-3.95,8.37-3.18,1.57-6.79,2.07-9.7-.12-2.87-2.16-2.36-6.36-1.29-8.65,4-8.55.28-15.42-3.5-22.5-2.25-4.21-4.47-8.45-6.66-12.7-1.01-1.97-1.93-4.28-4.1-4.93-6.17-1.85-6.11-6.39-5.4-11.36.56-3.88,1.97-7.62,1.04-11.74-.35-1.57.59-3.71,2.33-4.57,9.11-4.52,7.79-12.35,6.45-20.13-.71-4.15-3.07-7.26-6.8-9.31-4.01-2.21-7.84-4.82-12.01-6.65-12.71-5.58-24.93-12.23-36.15-20.21-4.27-3.03-8.49-5.91-13.09-8.34-1.79-.95-3.75-2.08-.99-4.17,1.16-.88.79-1.69-.08-2.36-3.65-2.84-1.89-7.86-4.56-11.18-.96-1.2-.67-3.46.99-4.13,2.27-.92,2.37,1.53,2.98,2.79,5.83,11.96,16.11,17.74,28.38,21.26,6.64,1.9,12.87,5.15,19.33,7.66,7.62,2.96,15.23,5.24,23.28,6.37,2.67.37,6.81,2.32,7.66,1.32,2.32-2.73,3.5-6.47,5.93-9.39.67-.8.4-2.33.74-3.46,1.53-5.04,6.34-8.22,11.44-7.63,5.36.62,9.04,4.97,9.55,10.51.35,3.73,1.3,7.43,2.22,11.08.62,2.43,2.8,2.31,4.85,2.51,18.66,1.85,36.63-3.53,54.96-5.15,7.7-.68,11.21-6.49,14.35-12.67.82-1.62-.05-5.74,3.1-4.33,1.94.87,3.38,5.59,2.08,7.35-3.53,4.76-4.86,10.47-7.88,15.36-2.23,3.6-6.32,4.48-9.72,5.03-16.64,2.66-31.87,9.9-48.01,14.12-6.09,1.59-8.76,6.56-10.83,11.83-1.36,3.45-2.21,7.1-3.63,11.8ZM90,123.56c-.79,9.24,5.61,15.93,8.2,23.93.77,2.37,3.79,2.63,4.68-.53,2.32-8.27,6.9-15.96,6.62-25.19-6.47,2.74-13.12,1.12-19.5,1.79Z"/>
</svg>