<?xml version="1.0" encoding="UTF-8"?>
<svg id="Calque_1" data-name="Calque 1" xmlns="http://www.w3.org/2000/svg" xmlns:xlink="http://www.w3.org/1999/xlink" viewBox="0 0 542.45 541.1">
  <defs>
    <style>
      .cls-1 {
        fill: #85c459;
      }

      .cls-2 {
        fill: #218fcd;
      }

      .cls-2, .cls-3 {
        opacity: .64;
      }

      .cls-4 {
        fill: #868b8e;
      }

      .cls-5, .cls-6 {
        fill: none;
      }

      .cls-7 {
        fill: #649f50;
      }

      .cls-6 {
        stroke: #242021;
        stroke-miterlimit: 10;
        stroke-width: 10px;
      }

      .cls-8 {
        fill: #f9f9f9;
      }

      .cls-9 {
        fill: #6b7074;
      }

      .cls-10 {
        fill: #f38d34;
      }

      .cls-11 {
        fill: #1b1b1b;
      }

      .cls-3 {
        fill: #53afe2;
      }

      .cls-12 {
        fill: #afb3b6;
      }

      .cls-13 {
        clip-path: url(#clippath);
      }
    </style>
    <clipPath id="clippath">
      <circle class="cls-5" cx="269.19" cy="270.73" r="220.02"/>
    </clipPath>
  </defs>
  <circle class="cls-6" cx="271.22" cy="270.51" r="248.46"/>
  <g class="cls-13">
    <circle class="cls-11" cx="269.19" cy="270.73" r="220.02"/>
    <g>
      <path class="cls-7" d="M122.83,178.84c-7.23,3.22-14.27,6.19-21.15,9.49-2.92,1.4-5.48,3.52-8.26,5.2-2.25,1.36-10.16-.2-12.27-2.26-.65-.63-.41-1.18-.28-1.75,1.52-6.59,3.44-13.01,5.46-19.38.4-1.26,1.19-1.61,2.51-1.39,15.6,2.7,30.42.78,44.95-2.83.8-.2,1.74-1.11,2.53-.28.85.89-.04,1.87-.26,2.74-2.45,9.48-7.4,16.96-14.44,22.77-3.88,3.2-8.18,5.63-12.88,7.35-1.24.46-2.61,1.37-3.91-.33-1.33-1.74-.84-3.34.15-4.71,2.03-2.81,5.1-4.29,7.69-6.37,3.1-2.5,6.31-4.86,9.46-7.29.23-.18.37-.49.7-.96Z"/>
      <path class="cls-7" d="M237.91,113.4c5.34-2.28,10.42-4.4,15.45-6.61,1.95-.86,3.9-1.69,6.1-1.75,1.5-.04,2.96.45,3.68,2.23.68,1.68-.39,2.47-1.35,3.25-10.8,8.84-23.31,12.39-37.92,9.41-.93-.19-1.85-.54-2.77-.83-1.4-.45-1.77-.8-.55-2.03,9.59-9.67,17.85-20.53,23.88-33.34.15-.31.28-.62.41-.94,2.4-5.7,2.4-5.77,8.48-4.32,4.73,1.13,9.45,2.52,14.18,3.7,1.69.42,2.5,1.11,1.94,3.01-.26.9-.16,1.97-.36,2.91-.81,3.86-2.14,6.73-6.14,8.3-6.12,2.4-11.65,6.16-16.78,10.42-2,1.67-4.22,3.04-6.35,4.54-.65.46-1.52.63-1.91,2.05Z"/>
      <path class="cls-7" d="M215.05,115.79c-.86.66-1.82.66-2.88.16-4.05-1.91-8.09-3.84-12.16-5.7-1.46-.66-1.4-1.24-.6-2.33,7.15-9.66,11.53-21.14,15.78-32.7.43-1.17,1.12-.99,1.92-.96,7.52.24,15.06.7,22.62,1.69,2.75.36,2.82.53,1.85,3.11-2.77,7.4-6.91,13.79-11.4,19.9-4.22,5.75-8.53,11.42-13.97,15.92-.38.31-.77.6-1.16.89Z"/>
      <path class="cls-7" d="M194.63,106.62c-.79.58-1.6.29-2.44-.13-5.64-2.76-11.28-5.53-16.94-8.24-1.43-.68-1.72-1.45-1.4-2.98,1.45-6.91,3.53-13.51,6.07-19.91.63-1.57,1.58-2.25,3.17-2.2,8.53.24,17.05.45,25.58.69,1.41.04,2.78.3,1.86,2.31-4.45,9.65-7.74,20.06-14.1,28.43-.55.72-1.19,1.36-1.78,2.04Z"/>
      <path class="cls-7" d="M138.03,138.25c-1.36.45-3.52.68-5.7.71-9.12.15-18.33-1.5-27.5-2.42-2.1-.21-2.44-1.13-1.4-3,4.1-7.39,8-14.92,12.41-22.09.96-1.56,1.94-2.03,3.85-1.75,6.57.99,13.07,2.6,19.54,4.62,1.5.47,2.2,1,2.04,2.8-.57,6.34-1.01,12.71-1.45,19.08-.06.92-.39,1.49-1.8,2.06Z"/>
      <path class="cls-7" d="M142.02,78.37c3.44-1.53,7.18-2.19,10.89-2.89,6.66-1.26,13.46-1.9,20.33-2.14,1.88-.07,2.66.3,1.85,2.36-2.24,5.7-3.94,11.65-5.28,17.75-.45,2.03-1.49,1.25-2.63.58-6.5-3.81-12.99-7.67-19.52-11.4-3.97-2.27-6.07-1.08-6.1,3.51-.05,6.89.1,13.81.09,20.7,0,3.41-.08,3.48-3.16,2.66-5.57-1.48-11.12-3.1-16.74-3.92-1.22-.18-1.86-.58-1-1.87,5.96-9,12.47-17.47,20.22-24.72.29-.28.7-.42,1.06-.62Z"/>
      <path class="cls-1" d="M197.66,47.98c3.94-1.19,7.54-1.25,11.1-1.38,3.94-.14,7.95.21,11.86-.08,4.47-.33,7.36,2.52,9.85,6.06,3.76,5.35,6.3,11.41,9.32,17.18,1.1,2.1-.59,1.72-1.6,1.6-5.78-.68-11.59-1.41-17.29-1.22-4.21.13-6.78-1.05-8.6-5.79-2.16-5.61-6.78-9.36-11.1-13.18-1.03-.91-2.05-1.84-3.54-3.19Z"/>
      <path class="cls-1" d="M79.93,151.86c-2.78-3.81-5.56-8.04-7.06-12.99-.82-2.68-.78-4.91.43-7.21,3.42-6.53,7.22-12.75,11.66-18.46.33-.43.51-1.29,1.18-1.1.81.23.8,1.13.97,1.85,1.14,5.06,1.97,10.15,4.19,15.03,1.08,2.38,2.61,4.39,4.12,6.38,1.06,1.39.93,2.2.33,3.35-3.3,6.4-6.64,12.78-9.5,19.47-.53,1.24-1.13,1.72-2.11.15-1.3-2.08-3.06-3.83-4.2-6.47Z"/>
      <path class="cls-1" d="M136.9,70.91c7.4-4.95,15.83-8.57,24.03-12.6,1.45-.71,2.77-.61,4.31.49,3.08,2.2,5.92,4.69,8.48,7.59.51.57,1.19,1.21,1.09,1.89-.16,1.01-1.25.59-1.89.62-9.72.43-19.2,1.74-28.55,3.86-5.01,1.14-8.18,4.47-11.42,7.95-5.79,6.21-10.91,13.06-15.69,20.22-.39.58-.55,1.67-1.5,1.41-.82-.22-.66-1.25-.93-1.9-1.53-3.69-2.15-7.51-2.63-11.36-.23-1.78.43-2.86,1.68-3.73,7.39-5.12,14.78-10.23,23.04-14.44Z"/>
      <path class="cls-1" d="M209.95,69.4c-9.36-.22-18.38-.44-27.4-.64-1-.02-1.78-.45-2.5-1.35-3.11-3.88-6.38-7.59-10.27-10.61-1.01-.78-1.3-1.43.18-1.98,6.41-2.42,13.03-4.22,19.72-5.83,1.36-.33,2.53.21,3.62,1.11,4.98,4.11,9.96,8.21,13.99,13.5,1.29,1.7,1.88,3.64,2.64,5.79Z"/>
      <path class="cls-1" d="M95.92,128.64c-3.22-6.84-4.55-13.99-5.43-21.22-.1-.81.26-1.3.73-1.83,4.72-5.28,10.05-9.85,15.26-14.54.97-.87,1.56-.63,1.78.91.7,4.96,2.14,9.78,4.32,14.42.61,1.29-.02,2.09-.54,2.94-4.13,6.84-8.02,13.86-11.8,20.95-1.43,2.68-1.78,2.63-3.6-.4-.24-.41-.47-.82-.71-1.23Z"/>
      <path class="cls-1" d="M232.61,48.11c4.72.81,9.04,1.22,13.11,3.55,4.32,2.48,8.45,5.46,12.83,7.76,3.34,1.76,4.88,4.7,6.29,7.89,1.18,2.66,2.13,5.4,3.14,8.12.25.69.63,1.63.4,2.1-.33.67-1.23.1-1.88-.08-6.16-1.68-12.31-3.47-18.52-4.53-1.82-.31-2.74-1.42-3.52-3.06-3.48-7.28-6.72-14.7-11.85-21.76Z"/>
      <path class="cls-1" d="M68.93,141.9c2.14,3.09,3.14,6.22,5.06,8.91,2.95,4.12,5.52,8.54,8.5,12.66.65.89.95,1.81.57,2.84-2.31,6.23-3.96,12.77-5.7,19.26-.46,1.71-.77,2.6-2.4.32-2.61-3.66-5.78-6.87-8-10.87-.81-1.46-1.27-2.87-1.29-4.48-.07-4.54-.26-9.1-.35-13.64-.11-5.34,1.98-9.79,3.61-14.99Z"/>
      <path class="cls-1" d="M65.99,181.66c3.22,3.86,5.89,7.07,8.57,10.27.61.72.74,1.46.5,2.3-2.06,7.3-4.17,14.57-7.7,21.22-.92-11.03-1.13-21.98-1.37-33.79Z"/>
      <path class="cls-1" d="M268.95,65.87c10.02,6.16,19.28,11.86,28.74,17.68-.94.82-1.88.47-2.75.37-6.21-.67-12.37-2.28-18.53-3.75-1.87-.44-2.84-1.47-3.47-3.41-1.12-3.42-2.46-6.78-3.99-10.9Z"/>
      <path class="cls-7" d="M292.01,88.51c-4.27.81-8.55,1.6-12.81,2.44-1.53.3-3.08.6-4.53,1.12-1.99.71-1.95-.33-1.72-1.89.88-5.99.86-5.96,6.66-4.68,4.13.91,8.27,1.72,12.4,2.57,0,.15,0,.3,0,.44Z"/>
      <path class="cls-7" d="M74.65,210.47c1.13-3.62,2.21-7.16,3.35-10.67,1.41-4.34,1.44-4.36,5.94-2.71.94.34,2.35.2,2.65,1.48.26,1.11-1.08,1.32-1.69,1.95-2.8,2.88-5.57,5.8-8.33,8.72-.49.52-.75,1.34-1.93,1.23Z"/>
      <path class="cls-7" d="M137.84,159.1c.99-.46,1.43-1.3,1.49-2.47.2-4.47.37-8.95.62-13.41.09-1.6-.45-1.82-1.78-1.61-11.88,1.83-24.08.36-36.28-1.27-1.24-.16-1.4.53-1.74,1.25-3.29,6.77-6.4,13.65-9.04,20.8-.96,2.6-.85,2.74,1.89,3.08,7.84,1,15.42.31,22.92-.82,7.05-1.06,14.08-2.23,20.6-4.95.45-.19.89-.41,1.33-.61Z"/>
    </g>
    <path class="cls-3" d="M515.06,238.77c-10.33,7.88-21.48,13.64-32.67,19.05-17.66,8.54-29.34,21.81-36.06,40.04-4.83,13.09-9.29,26.36-18.65,37.32-8.01,9.38-16.88,16.69-29.77,17.88-12.82,1.18-25.19,3.9-36.8,10.05-10.84,5.74-18.36,13.9-22.12,25.51-1.28,3.97-2.79,7.96-3.34,12.06-3.62,26.83-21.17,41.9-45.39,46.69-32.26,6.39-55.68,22.22-71.42,50.89-5.45,9.92-13.7,18.2-24.81,22.27-4.1,1.5-10.3,4.14-11.59-3.11-.94-5.28-6.26-12.05,4.49-15.77,9.88-3.42,15.45-12.57,19.11-22.46,3.51-9.48,6.95-18.89,13.16-27.23,6.99-9.38,15.79-15.98,26.99-17.61,39.44-5.72,66-44.2,67.45-78.61.76-17.93,12.96-28.41,31.37-27.99,26.83.61,49.7-7.65,68.63-26.92,7.31-7.44,12.47-16.02,15.33-25.83,6.26-21.45,21.14-32.99,42.1-37.98,14.3-3.41,27.98-7.18,36.07-21.75,3.41-6.14,9.73-.21,14.55.74,4.57.91,3.4,4.86,2.47,8.07-1.7,5.88-5.52,10.45-9.1,14.71Z"/>
    <path class="cls-2" d="M734.13,276.13c-24.38-7.05-48.79-14.04-73.19-21.02-37.9-10.84-75.85-21.52-113.67-32.65-6.33-1.86-9.24-.85-10.86,5.66-1.29,5.19-4.46,9.58-7.87,13.86-10.43,13.1-25.3,19.57-39.58,26.72-14.62,7.32-25.12,17.79-30.31,33.44-1.69,5.09-3.94,9.99-5.76,15.04-4.54,12.58-12.42,23.01-21.32,32.7-10.93,11.89-25.23,16.27-40.82,17.93-21.38,2.27-39.4,10.5-42.76,37.62-.47,3.81-1.73,7.58-3.04,11.23-4.44,12.38-11.98,21.82-22.93,29.84-14.55,10.65-31.03,14.95-47.72,19.22-13.64,3.49-24.58,10.33-32.44,22.07-3.97,5.93-8.09,11.77-12.28,17.55-9.76,13.48-20.48,26.02-37.84,29.39-6.29,1.22-7.38,3.41-6.35,9.41,10.74,62.7,21.19,125.45,31.74,188.18.71,4.21,1.6,8.39,2.41,12.58,6.82-16.88,11.3-33.82,18.11-49.95,2.49-5.9,3.65-11.82,2.91-18.14-7.3-18.55-9.73-37.89-9.34-57.69.05-1.3.1-2.59.15-3.89-.04-.55-.07-1.11-.11-1.66,1.31-.03,1.38.76,1.15,1.74.22,1.27.43,2.54.64,3.81,3.52,19.11,6.73,38.26,7.93,57.69,6.03,1.13,5.68-4.41,7.02-7.37,10.63-23.49,23.11-45.74,37.08-67-.53,10.15,1.7,18.49,7.04,24.49,26.81,30.1,121.43-10.42,211.34-90.5,89.91-80.08,141.06-169.4,114.25-199.5-5.32-5.97-13.31-9.15-23.39-9.81,4.36-2.26,8.74-4.49,13.14-6.68,22.35-11.13,45.96-19.76,69.33-27.29,17.75-5.72,37.21-9.89,56.53-11.39,2.73-.21,5.98.32,8.11-2.52-1.99-2.4-4.83-2.36-7.29-3.08ZM243.35,581.25c-2.19-9.06-2.9-18.06-1.62-27.13,2.7,8.96,2.8,18.07,1.62,27.13ZM592.85,274.41c25.45.11,49.98,4.8,73.33,15.42-24.44-5.14-48.89-10.28-73.33-15.42ZM669.94,290.62c-.26-.06-.63-.03-.76-.19-.13-.16-.01-.51,0-.78.28.06.65.03.78.19.12.16,0,.51-.02.78Z"/>
    <path class="cls-10" d="M148.83,461.1c-5.51-.08-8.38,2.71-11.09,6.17-5.2,6.65-13.03,8.25-20.18,4.4-7.18-3.87-6.83-10.04-4.44-16.32,2.33-6.12-.46-10-4.69-13.63-7.08-6.07-12.21-12.95-8.41-24.86-2.61,3.2-3.85,4.85-5.23,6.38-4.31,4.78-9.48,7.02-15.26,3.13-5.62-3.78-8.57-9.06-6.15-16.23,1.47-4.34,6.86-8.25,4.6-12.59-2.03-3.9-8.17-1.87-12.36-3.24-9.42-3.08-14.82-11.65-11.99-19.77,3.26-9.35,12.64-13.17,22.78-8.66.15-6.08-2.74-9.61-7.97-10.89-9.72-2.38-23,6.76-19.92,18.37,2.99,11.28-2.26,17.65-14.07,19.77-1.8.33-3.61.68-5.43.86-5.56.54-6.03,3.02-3.06,7.25,1.64,2.33,3.37,4.82,4.15,7.49,1.77,6.04.73,11.57-5.13,15.07-5.92,3.53-11.48,3.05-16.26-2.26-.85-.94-1.62-1.95-3.55-4.29,1.01,11.83-4.57,18.89-12.04,24.9-3.75,3.02-4.48,6.5-2.89,11.14,2.23,6.47,3.13,13.03-4.58,16.98-8.44,4.32-14.04,2.98-20.38-5.11-3.11-3.97-6.88-6.16-12.83-6.02,2.04,3.61,5.43,6.27,4.03,10.56-1.43,4.4-5.03,6.61-8.59,8.78-5.36,3.28-10.88,6.28-16.32,9.44-5.57,3.24-9.46,7.43-8.28,14.56.57,3.43-.42,5.37-4.54,5.13-16.7-.96-33.42-1.83-50.14-2.45-5.2-.19-6.09-2.61-6.67-7.32-1.57-12.75,3.79-20.92,14.74-26.67,8.56-4.5,16.96-9.38,25.06-14.66,12.95-8.45,13.55-13.98,3.52-25.33,7.45-2.64,14.28-.34,19.56,6.6,10.11,13.28,16.19,14.32,31.21,7.3,7.18-3.36,8.13-8.73,7.93-15.22-.05-1.52-.52-3.16-1.24-4.52-5.75-10.8-.84-17.81,7.48-24.77,13.96-11.69,15.96-20.46,9.97-37.67,3.84,1.93,5.28,5.29,7.34,8.05,7.74,10.37,16.92,12.49,26.42,6.12,8.9-5.96,10.88-16.68,4.86-27.03-1.57-2.7-3.58-5.16-5.4-7.72-3.49-4.93-1.44-7.92,3.64-9.2,3.78-.96,7.74-1.25,11.64-1.66,14.64-1.53,22.99-12.56,20.21-26.79-3.4-17.39,7.61-30.71,25.09-30.36,10.48.21,17.85,8.62,16.47,18.78-9.38-5.8-17.65-5.69-25.89.35-6.99,5.12-10.6,14.38-8.63,22.13,2.51,9.83,12.01,17.83,22.82,18.87,20.08,1.94,18.4,1.98,9.65,17.85-4.24,7.69-5.56,15.03.03,22.68,4.16,5.69,9.17,9.09,16.56,8.37,6.36-.62,10.29-4.61,13.95-9.19,2.07-2.59,3.02-6.08,6.25-7.92,1.86,2.25-.16,4.05-.69,5.68-2.98,9.18-.53,17.08,5.47,24,3.76,4.34,8.16,8.13,12.25,12.2,4.33,4.31,5.54,9.11,3.12,15.01-9.01,21.91,6.83,29,21.98,27.84,6.48-.49,10.29-4.5,13.67-9.38,4.43-6.4,10.1-10.34,18.56-9.29-7.67,14.21-6.27,19.37,7.71,28.05,9.11,5.66,18.15,11.5,27.62,16.49,10.43,5.5,10.51,15.18,9.5,25.19-.38,3.8-3.89,3.43-6.07,3.54-17.78.84-35.57,1.3-53.36,2.03-3.93.16-5.16-1.54-4.81-5.11.6-6.08-2.67-9.68-7.67-12.46-5.95-3.31-11.77-6.86-17.52-10.51-8.74-5.56-9.69-8.51-6.1-18.46Z"/>
    <g>
      <path class="cls-8" d="M184,407.04c7.06-25.95,7.16-51.52-2.87-77.16-5.4,4.01-10.44,7.65-15.36,11.43-2.34,1.8-5.07,2.82-7.78,2.76-3.44-.08-7.37-.71-8.81-4.49-1.28-3.34,2.02-4.9,4-6.67,8.67-7.75,17.55-15.19,28.63-19.43,2.96-1.13,5.92-1.87,8.76-.38,3.58,1.87,7.28,4.32,1.13,7.6-2.87,1.53-2.11,2.72-.8,4.83,14.22,22.87,15.24,47.9,11.2,73.48-1.4,8.89-4.87,17.4-15.55,19.26-8.9,1.55-16.66-3.05-21.67-14.1-5.02-11.07-8.23-22.8-8.48-35.14-.08-3.94-.25-7.83,5.19-7.96,5-.12,6.9,3.1,7.47,7.51,1.63,12.57,4.62,24.7,11.34,35.66.72,1.17,1.27,2.48,3.62,2.81Z"/>
      <path class="cls-8" d="M240.65,332.77c3.91-1.6,7.55-2.65,10.69-3.34-.51-3.72-1.22-7.38-1.46-11.06-.24-3.66.4-6.78,4.94-7.95,4.86-1.25,6.57,1.72,7.59,5.12,1.75,5.8,3.03,11.75,4.34,17.67.96,4.35,2.06,8.61,4.21,12.55,1.1,2.02,2.15,4.81,4.52,4.56,2.73-.28,2.53-3.33,2.97-5.62,1.56-8.15.22-16.25-.31-24.35-.36-5.57-1.01-11.13-1.43-16.7-.23-3.02.35-5.58,4.15-5.92,3.21-.29,5.39.72,6.3,4.05,4.02,14.78,6.05,29.7,2.99,44.91-1.34,6.67-5.07,11.29-12.15,12.85-7,1.54-11.59-1.76-15.59-6.85-3.93-4.99-6.29-10.84-9.29-17.01-12.84,8.59-23.66,19-34.28,29.67-1.85,1.86-3.46,4.41-6.96,3.63-5.99-1.34-7.6-6.67-2.7-11.69,5.94-6.08,8.03-14.5,15.54-21.1-5.16.66-7.15,3.23-9.74,4.65-4.13,2.26-7.29.72-9.92-2.2-2.92-3.25-.15-5.68,2.01-7.71,8.97-8.45,20.04-13.38,31.15-18.2,2.91-1.26,5.5-.21,7.76,1.72,1.11.94,1.84,1.94,1.72,2.94-.13,1.12-1.27,1.84-1.68,2.1-4.17,2.68-14.02,11.05-18.02,19.47-.24.5-.41.91-.47,1.06,3.3-2.36,7.67-5.01,13.11-7.24Z"/>
      <path class="cls-8" d="M306.05,313.22c1.49,14.16,4.69,26.33,6.88,38.68.32,1.83,3.27,4.56-.55,5.84-3.23,1.09-6.22-.17-7.55-3.33-1.9-4.51-3.59-9.16-4.83-13.89-3.06-11.74-5.88-23.54-8.64-35.35-.72-3.09-1.95-6.56,1.39-9.04,3.52-2.61,7.07-1.51,10.53.34,7.11,3.8,12.15,10.05,18.82,16.05-1.41-11-3.86-21.04-3.89-31.3,0-2.41-.23-5.64,2.73-6.67,2.45-.85,5.07-.05,7.25,1.59,1.7,1.28,1.61,3.17,1.94,5.02,4.74,26.85,8.23,53.94,14.86,80.44.53,2.12,1.11,4.43-1.46,5.37-2.77,1.02-5.27-.26-6.35-2.88-1.51-3.66-2.84-7.48-3.58-11.36-2.05-10.73-7.67-19.26-15.32-26.75-3.81-3.73-7.38-7.7-12.22-12.77Z"/>
      <path class="cls-8" d="M407.22,281.7c-2.12,11.96,3.51,23.8,13.94,30.1,8.71,5.26,9.2,10.13,1.36,16.58-6.74,5.55-14.54,9.15-22.95,11.45-2.16.59-4.68.79-5.48-1.52-.99-2.86,1.95-2.98,3.76-3.83,5.06-2.39,9.87-5.24,13.93-9.12,3.52-3.37,3.76-6.38-.8-9.59-10.75-7.59-17.87-17.51-18.92-31.17-.78-10.17,2.05-16.15,10.76-20.17,1.65-.76,1.91-1.76,2.27-3,1-3.4,3.47-4.1,6.57-3.67,3.21.45,6.04,1.49,6.37,5.31.84,9.72-.76,19.5.75,29.22.21,1.33-.61,2.59-2.43,2.85-2.44.35-4.33-.54-5.23-2.59-1.47-3.35-2.51-6.89-3.91-10.84Z"/>
      <path class="cls-8" d="M363.57,299.79c5.44-3.46,10.97-6.79,16.29-10.41,3.82-2.6,7.14-1.22,9.18,1.72,2.29,3.3-1.94,4.18-3.64,5.43-11.28,8.32-21.56,17.75-31.19,27.86-3.22,3.38-6.31,4.75-10.16,1.51-3.98-3.35-2.19-7,.49-9.74,5.8-5.92,8.22-14.06,14.8-20.51-4.29-.54-6.13,2.32-8.37,3.62-4.03,2.34-7.17,1.45-10-1.51-3.3-3.45-.56-6.14,1.8-8.31,9.06-8.33,20.09-13.36,31.25-18.07,3.53-1.49,6.77,0,8.58,2.9,2.6,4.18-2.4,4.01-4.04,5.69-5.69,5.85-10.77,12.17-15,19.81Z"/>
      <path class="cls-8" d="M386.72,309.9c3.26-1.29,5.98-.62,8.29,1.93,1.88,2.07,2.54,3.16-.92,4.97-13.32,6.97-24.59,16.66-34.57,27.86-1.4,1.57-2.81,3.12-4.22,4.67-2.64,2.89-5.54,2.97-8.75.9-3.57-2.29-2.44-5.31-.96-7.93,2.53-4.47,5.74-8.48,9.72-11.85,9.64-8.15,20.4-14.55,31.41-20.56Z"/>
      <path class="cls-8" d="M260.58,354.52c.95,2.06-.21,2.56-1.92,3.47-14.07,7.58-26.02,17.79-36.41,29.89-1.06,1.24-2.05,2.59-3.32,3.59-2.78,2.18-5.58,1.73-8.34-.26-2.78-2-2.02-4.48-.91-6.83,2.96-6.25,7.61-11.25,13.12-15.17,8.31-5.92,16.93-11.42,25.63-16.75,5.1-3.13,10.57-1.9,12.15,2.07Z"/>
      <path class="cls-8" d="M281.21,361.91c5.23-1.15,9.52-2.47,13.9-2.95,3.27-.36,6.14,1.37,6.48,5,.37,3.96-3.26,2.16-5.07,2.97-7.87,3.51-15.89,6.71-23.55,10.62-4.39,2.24-7.68,2-10.12-2.13-2.69-4.55,1.36-6.54,4.23-7.97,4.78-2.38,9.95-3.95,14.13-5.54Z"/>
    </g>
    <g>
      <path class="cls-12" d="M324.44,115.8c-4.61-7.46-5.37-14.8-2.15-22.77,3.13-7.75,9.75-9.42,16.5-10.91,3.05-.68,4.31,4.06,8.09,4.89-3.19-4.77-6.77-8.38-8.43-13.43-2.92-8.88-2.41-17.06,1.19-25.04,1.19-2.65,2.56-3.23,5.28-1.38,5.56,3.8,11.48,6.58,18.19,5.48.74.4,1.77.53,1.79-.32.03-1.1-1.1-.37-1.68-.6-16.65-3.13-27.82-15.88-29.12-33.2-.14-1.9-.24-3.73,1.44-4.92,1.34,3.81,3.94,6.54,7.17,8.74.58.99.87,2.33,2.4,2.19l-.08-.04c.9,1.52,2.08,2.58,3.87,2.61h-.03c7.64,5.82,15.69,4.95,23.52,2.56,3.65-1.12,4.58-.37,4.95,3.35.74,7.47,4.37,12.96,11.63,15.36,1.95.64,2.52,1.27,2.24,3.52-1.72,13.62,2.9,22.3,14.88,28.48,1.14.59,2.47.65,2.42,2.66-.27,12.05,6.49,19.65,16.15,25.41-8.89,20.1-5.67,38.26,8.79,49.18.67,1.6,1.7,2.85,3.25,3.61-9.28,3.8-21.51-1-28.15-11.19-6-9.2-7.71-18.98-4.99-29.24.2-.44.39-.87.59-1.31.03-.85,2.02-1.13.77-2.07-.65-.49-1.64.63-1.69,1.8-.27.37-.53.75-.8,1.12-2.97,5.36-3.66,11.31-2.69,17.5.52,3.33-.71,3.98-3.55,4.01-12.05.12-24.14-8.32-28.93-20.37-.42-1.07-1.08-2.05-1.81-3.43-.23.87-.46,1.31-.46,1.77-.02,2.67,2.89,5.35.26,8.03-3.8,3.89-7.1,8.38-13.3,8.64-9.7.41-17.34-3.34-22.52-12.46-1.66-2.75-3.31-5.49-4.97-8.24ZM348.33,87.98c-.24-.15-.49-.3-.73-.45.02.28-.05.61.08.82.14.23.47.34.71.5-.02-.28-.03-.57-.06-.87ZM366.64,52.32c.11,0,.22,0,.32,0-.09-.17-.17-.33-.26-.5-.06.09-.16.16-.18.26-.01.07.08.16.12.25Z"/>
      <path class="cls-4" d="M427.7,163.29c-1.52-.69-2.52-1.86-3.14-3.39-1.32-2.08-2.63-4.16-3.97-6.22-10.11-15.5-9.66-26.64,1.7-41.48.49-.64,1.1-1.3.71-2.18-.48-1.07-1.4-.48-2.15-.42-8.07.66-11.43-5.19-14.81-10.86-2.93-4.92-2.89-9.84.97-14.49-15.75-1-23.39-12.83-17.63-27.17,1.17-2.92.19-3.16-2.41-3.42-9.09-.9-13.65-7.04-12.18-15.9.29-1.72,1.32-3.33.84-5.16-.4-.07-.75-.24-1.03-.16-.62.18-1.23.42-1.79.75-8.23,4.8-16.91,5.71-26.02,3.08-.89-.26-1.83-.88-2.63.21,0,0,.03,0,.03,0-.57-1.88-1.88-2.6-3.78-2.4,0,0,.08.04.08.04-.43-1.07-.95-2.04-2.33-2.04-3.15-2.02-5.67-4.57-6.89-8.21,2.89-8.06,6.93-15.55,11.38-22.83,1.69,3,3.27,6.08,5.1,8.99,5.1,8.11,12.78,12.63,21.93,14.36,8.2,1.55,16.75,3.94,24.06-2.85,8.5,10.8,10.65,22.74,7.38,36.09-2.92,11.9,5.14,24.97,16.9,28.29,9.34,2.64,17.72,6.69,23.53,14.86-2.11,2.96-4.21,5.91-6.32,8.87.09.6.18,1.2.27,1.79l.02-.09c-1.05.32-1.37,1.15-1.49,2.12-.22.2-.3.44-.24.73-.05.61-.1,1.21-.15,1.82v-.1c-.58.82-.41,1.58.19,2.3l.02-.1c-.54.38-.61.88-.36,1.45l.02-.1c-.11.48-.22.96-.33,1.43.44,1.66-.73,3.01-.82,4.68-.61,12.12,2.61,22.83,10.24,32.39,1.56,1.96,4.13,3.63,4.19,6.66-6.4-.04-12.86.92-19.11-1.34Z"/>
      <path class="cls-9" d="M393.75,21.54c-7.31,6.8-15.86,4.41-24.06,2.85-9.15-1.73-16.82-6.25-21.93-14.36-1.83-2.91-3.41-5.98-5.1-8.99,4.38-10.96,10.24-21.21,15.37-31.81.57-1.17,1.21-2.6,2.87-2,1.38.5,2.64,1.36,2.84,3.09.42,3.57.98,7.12,1.25,10.7,1.16,15.39,7.54,27.42,21.73,34.67,2.71,1.38,5.47,2.96,7.02,5.85Z"/>
      <path class="cls-9" d="M446.8,164.63c-.05-3.04-2.62-4.71-4.19-6.66-3.42-4.29-5.96-8.81-7.66-13.59-2.38-6.69-2.61-12.29-2.58-18.8.02-4.18.41-9.63,1.86-15.91,2.44-2.96,4.88-5.92,7.33-8.88,4.63,5.83,7.13,12.39,7.09,19.9-.09,14.5,7.29,24.56,19.09,32.03,3.94,2.5,8.53,4.19,10.87,8.83,1.54,3.06,1.03,4.12-2.43,3.99-9.79-.37-19.59-.61-29.39-.9Z"/>
    </g>
    <g>
      <path class="cls-8" d="M280.26,177.92c2.97,3.99,3.13,8.77,3.33,13.36.53,12.44,3.33,24.53,5.39,36.73.2,1.17.78,3.69,2.78,5.95,1.68,1.9,3.7,2.82,5.02,3.29-1.78-8.72-3.12-21.61.04-36.45,0,0,3.31-15.92,14.81-31.8,3.91-5.4,8.84-9.72,16.26-9.31,8.02.44,11.66,5.65,9.02,13.21-1.45,4.18-3.42,8.17-4.89,12.34-.76,2.15-1.95,3.25-4.1,2.63-2.46-.71-2.02-2.56-1.53-4.55.83-3.31,1.37-6.7,2.1-10.36-3.21.2-3.8,2.54-4.73,4.08-11.6,19.18-17.24,39.54-11.82,62,1.13,4.68,3.84,5.95,8.29,4.62,8.92-2.65,16.3-11.58,17.26-20.73.53-5.06-.99-7.24-6.21-5.21-4.4,1.71-9.93,5.76-12.46-1.04-2.38-6.38,4.69-7.58,8.66-9.69,6.18-3.28,12.82-5.44,19.84-6.44,4.42-.63,7.81.13,10.22,4.92-6.41,1.13-6.73,5.57-7.26,11.04-1.73,17.88-3.16,35.69-.28,53.57-6.47.23-7.95-1.07-9.76-9.42-1.12-5.16-1.8-10.41-2.78-16.2-5.27,3.25-9.64,6.48-15.37,7.6-4.06.79-7.63.63-10.83-.5-6.01-2.12-8.54-6.14-8.54-6.14-.51-.65-1.63-2.19-3.56-2.72-.5-.14-1.83-.51-3.03.24-.83.53-1.43,1.5-1.46,2.46-.05,1.39,1.08,2.42,3.28,4.22,5.03,4.13,6.36,4.7,6.21,5.39-.27,1.22-5.04,2.14-9.14.49-4.36-1.75-7.92-6.38-7.92-6.39,0,0-5.07,2.55-9.47,4.52-9.9,4.42-12.52,4.13-13.71,3.91-1.07-.2-3.76-.72-5.46-2.91-1.39-1.79-1.65-4.2-1.49-7.07.8-14.16,2.16-28.24,5.2-42.13,1.69-7.7,3.13-15.45,4.91-23.12.6-2.61,1.14-4.4-2.63-4.24-2.76.12-3.41-1.81-3.16-4.26.9-8.67,3.81-16.76,7.02-24.77,1-2.51,2.97-2.72,5.15-2.53,2.65.23,3.22,2.08,3.51,4.38,1.03,8.25.89,16.7,6.76,23.8,1.96,2.37-1.83,1.23-2.83,1.93-.22.44-.43.87-.65,1.31ZM272.46,241.83c8.8-3.07,9.26-7.88,2.34-16.31-.73,5.12-1.48,10.36-2.34,16.31ZM277.43,176.02c-1.89-3.13-3.56-5.9-5.81-9.62-1.38,3.95-2.44,7.01-3.58,10.26,3.34-.23,6-.41,9.39-.64Z"/>
      <path class="cls-8" d="M139.24,293.23c1.4-13.82,2.6-27.67,4.24-41.47,2.77-23.34,5.42-46.73,14.56-68.72,1.76-4.22,3.75-8.53,9.69-6.26,3.19,1.22,5.51,1.99,2.4,6.69-5.08,7.68-5.63,17.18-6.81,26.14-4.22,32.25-8.1,64.54-12.16,96.81-.5,3.95-.92,8.19-5.85,9.31-5.14,1.16-9.78.25-13.22-4.14-1.28-1.64-2.68-3.29-3.52-5.16-9.51-21.29-14.49-43.76-16.86-66.85-.22-2.16-1.11-5.47,3.13-5.66,3.95-.18,6.82.91,7.85,5.18,2.95,12.25,5.85,24.5,9.03,36.69,1.57,6.04,3.04,12.17,7.52,17.45Z"/>
      <path class="cls-8" d="M196.59,272.9c12.31-4.87,23.56-9.93,35.95-11.71,5.96-.86,9.36,1.99,11.52,6.83.9,2.01-.01,5.41-2.55,4-6.93-3.84-12.53.56-17.88,2.65-16.2,6.31-32.39,12.94-46.32,23.76-2.89,2.25-5.62,2.41-8.17.07-2.44-2.23-2.23-5.21-.31-7.59,2.07-2.57,1.46-4.91.91-7.78-2.49-13.09-3.02-26.33-2.66-39.65.14-5.19,2.62-7.12,7.44-6.85,4.95.27,5.04,3.49,4.91,7.4-.37,10.7-.46,21.41-.48,32.12,0,1.43-.76,4.18,2,3.98,1.93-.14,4.1-1.02,3.81-4-2.56-26.42,1.84-52.4,5.12-78.44.41-3.22,1-6.45,1.82-9.59.82-3.1,1.46-6.94,5.99-6.28,4.45.64,7,3.53,6.9,8.15-.24,11.86-2.62,23.49-4.04,35.23-1.89,15.63-4.09,31.24-3.95,47.69Z"/>
      <path class="cls-8" d="M381.49,194.12c3.22.9,5.3-.34,7.53-1.44,4.36-2.15,8.85-4.04,13.29-6.05,3.73-1.69,6.61-.14,8.08,3.06,1.54,3.34-1.69,4.08-3.93,5.31-13.26,7.31-25.65,15.92-37.38,25.45-4.16,3.38-7.96,4.18-11.35-.28-3.17-4.17-.54-7.58,2.76-10.15,6.9-5.37,10.33-13.69,18.47-19.35-4.63-1.08-6.67,1.28-8.84,2.42-4.94,2.6-8.81,1.21-11.52-2.88-2.9-4.37.77-6.89,3.89-8.96,10.6-7.03,22.73-10.51,34.67-14.3,3.27-1.04,6.52.61,8.42,3.63.92,1.47,1.84,3.56-.82,4.62-9.61,3.84-15,12.73-23.28,18.91Z"/>
      <path class="cls-8" d="M217.39,247.56c3.36-1.69,6.89-2.71,10.68-2.94,3.69-.22,5.94,1.59,6.52,4.93.64,3.71-2.11,4.76-5.15,5.05-7.16.66-13.46,3.47-19.24,7.6-1.26.9-2.36,2.77-4.15,1.44-1.88-1.39-2.6-4.08-1.35-5.64,3.4-4.22,2.09-8.73,1.96-13.31-.44-15.88,2.33-31.41,5.36-46.91.75-3.83,1.65-7.8,6.83-6.79,4.49.87,6.41,3.71,5.91,8.64-1.61,15.93-4.59,31.59-8.39,47.11-.18.4-.37.8-.55,1.2.52-.13,1.03-.26,1.55-.39Z"/>
      <path class="cls-8" d="M405.58,209.23c4.27-.41,7.24,1.07,9.07,4.5.97,1.81,1.13,3.41-1.55,4.26-17.17,5.49-31.22,16.08-44.61,27.69-.88.76-1.73,1.57-2.67,2.25-3.05,2.24-5.7.96-8.23-1.03-2.84-2.23-2.28-4.9-.75-7.48,1.06-1.79,2.36-3.5,3.83-4.97,12.71-12.68,29.53-18.01,44.91-25.23Z"/>
      <path class="cls-8" d="M296.65,260.53c-.2,1.66-2.73,2.57-4.23,3.18-6.84,2.75-13,7.16-19.53,10.71-2.22,1.2-4.62,2.45-7.05,2.78-3.62.48-6.43-1.79-7.68-4.92-.28-.71-.35-1.34-.24-1.9.39-2.18,2.97-3.41,4.07-3.94,8.5-4.05,12.75-6.07,27.49-11.88.2-.08.73-.29,1.42-.24.68.05,1.59.37,3.32,2.36,1.7,1.95,2.54,2.92,2.43,3.85Z"/>
      <path class="cls-8" d="M169.23,219.93c-.97-7.6-.74-13.36-.18-19.11.35-3.64,2.44-5.51,6.01-5.22,3.54.29,6.38,1.97,6.36,5.97-.04,7.79-3.67,15.32-1.51,23.33.46,1.72-1.7,1.85-3.04,1.85-5.75-.02-7.41-3.8-7.63-6.83Z"/>
      <path class="cls-8" d="M240.45,235.72c.64-3.66-.34-8.12,1.31-12.35,1.12-2.87,2.67-5.09,6.16-3.96,3.16,1.03,5.25,3.31,4.48,6.75-1.11,4.93-4.41,9.15-4.88,14.37-.11,1.18-1.35,1.83-2.69,1.48-2.88-.76-4.02-2.87-4.37-6.28Z"/>
    </g>
  </g>
</svg>