<?xml version="1.0" encoding="UTF-8"?>
<svg id="Calque_1" data-name="Calque 1" xmlns="http://www.w3.org/2000/svg" viewBox="0 0 542 170">
  <defs>
    <style>
      .cls-1 {
        fill: #fff;
      }
    </style>
  </defs>
  <rect x="-16" y="-9" width="825" height="190"/>
  <g>
    <g>
      <path class="cls-1" d="M311.09,121.38c12.01-19.1,18.34-39.61,16.56-62.65-5.32,1.9-10.25,3.59-15.13,5.42-2.32.87-4.76,1.03-6.92.32-2.75-.9-5.74-2.38-5.98-5.76-.21-2.99,2.81-3.44,4.84-4.38,8.85-4.1,17.8-7.9,27.74-8.6,2.65-.19,5.21-.06,7.12,1.83,2.41,2.38,4.79,5.25-.95,6.38-2.68.53-2.36,1.67-1.82,3.69,5.83,21.84.52,42.18-8.97,61.73-3.3,6.79-8.17,12.78-17.19,11.66-7.52-.93-12.63-6.52-13.95-16.62-1.32-10.11-1.03-20.31,1.78-30.29.9-3.18,1.72-6.34,6.11-5.12,4.04,1.13,4.78,4.17,4.16,7.86-1.77,10.49-2.33,20.96.39,31.4.29,1.11.42,2.3,2.22,3.14Z"/>
      <path class="cls-1" d="M374.73,75.6c3.53-.33,6.71-.28,9.4-.07.5-3.11.83-6.22,1.53-9.24.7-2.99,1.98-5.35,5.91-5.17,4.21.18,4.85,2.99,4.84,5.97-.01,5.08-.44,10.17-.84,15.25-.29,3.72-.45,7.41.31,11.11.39,1.89.55,4.38,2.52,4.77,2.26.44,2.85-2.06,3.76-3.79,3.25-6.16,4.15-12.99,5.71-19.63,1.07-4.56,1.91-9.18,2.94-13.75.56-2.48,1.65-4.4,4.78-3.74,2.65.55,4.15,1.89,4.07,4.79-.38,12.85-2.41,25.32-8.58,36.79-2.7,5.03-6.83,7.82-12.9,7.34-6-.48-8.87-4.25-10.84-9.31-1.93-4.97-2.4-10.24-3.3-15.93-12.41,3.75-23.64,9.47-34.78,15.44-1.94,1.04-3.85,2.7-6.47,1.21-4.48-2.54-4.47-7.21.69-10.05,6.25-3.43,9.99-9.68,17.63-13.14-4.31-.73-6.53.84-8.96,1.35-3.87.8-6.03-1.2-7.42-4.19-1.55-3.32,1.27-4.6,3.49-5.7,9.26-4.59,19.36-5.85,29.46-7,2.65-.3,4.47,1.18,5.81,3.27.66,1.03,1,2.01.66,2.78-.38.87-1.47,1.16-1.86,1.27-4,1.13-13.95,5.44-19.23,11.22-.32.35-.55.63-.64.74,3.23-1.08,7.39-2.14,12.29-2.61Z"/>
      <path class="cls-1" d="M432.02,75.89c-2.27,11.73-2.67,22.28-3.93,32.73-.19,1.55,1.51,4.46-1.87,4.55-2.86.08-4.95-1.66-5.25-4.52-.43-4.08-.65-8.23-.48-12.33.41-10.17,1.03-20.33,1.71-30.49.18-2.66.04-5.74,3.32-6.92,3.47-1.24,6.05.52,8.37,2.85,4.78,4.79,7.3,11.04,11.19,17.48,1.56-9.17,2.05-17.83,4.53-26.08.58-1.94,1.19-4.59,3.82-4.69,2.18-.09,4.08,1.2,5.43,3.05,1.05,1.45.52,2.94.33,4.5-2.76,22.72-6.57,45.31-7.73,68.21-.09,1.83-.2,3.83-2.49,3.96-2.48.14-4.17-1.5-4.39-3.86-.31-3.31-.45-6.7-.1-9.99.98-9.12-1.45-17.34-5.76-25.22-2.15-3.92-4.05-7.98-6.69-13.24Z"/>
      <path class="cls-1" d="M520.94,75.32c-4.63,9.08-3,19.96,3.83,27.58,5.7,6.35,4.91,10.38-2.96,13.64-6.77,2.81-13.91,3.79-21.23,3.58-1.87-.05-3.95-.51-4.03-2.56-.1-2.54,2.29-1.91,3.96-2.16,4.64-.68,9.21-1.79,13.41-3.92,3.65-1.84,4.58-4.2,1.71-7.9-6.78-8.72-10.07-18.43-7.57-29.65,1.86-8.35,5.59-12.46,13.57-13.57,1.51-.21,1.96-.94,2.56-1.86,1.64-2.48,3.79-2.45,6.17-1.34,2.46,1.15,4.48,2.68,3.82,5.82-1.7,8.01-5.38,15.47-6.54,23.64-.16,1.12-1.13,1.93-2.65,1.7-2.04-.32-3.34-1.49-3.56-3.36-.36-3.05-.33-6.15-.49-9.66Z"/>
      <path class="cls-1" d="M481.47,79.18c5.21-1.45,10.47-2.77,15.63-4.38,3.7-1.16,6.03.77,6.95,3.63,1.03,3.21-2.58,2.88-4.25,3.47-11.09,3.92-21.64,8.98-31.86,14.74-3.41,1.93-6.22,2.27-8.52-1.27-2.38-3.66-.04-6.16,2.78-7.7,6.1-3.34,10.04-9.28,16.89-12.85-3.31-1.49-5.49.37-7.61.86-3.81.89-6.11-.59-7.66-3.66-1.81-3.58,1.05-5.06,3.48-6.23,9.31-4.47,19.39-5.81,29.51-6.87,3.2-.34,5.44,1.65,6.18,4.42,1.06,3.99-2.91,2.63-4.64,3.58-6,3.3-11.62,7.14-16.88,12.24Z"/>
      <path class="cls-1" d="M497.59,92.95c2.93-.24,4.95.96,6.18,3.57,1,2.13,1.26,3.16-1.96,3.76-12.4,2.34-23.81,7.36-34.56,13.91-1.5.92-3.02,1.82-4.53,2.72-2.83,1.67-5.17,1.03-7.24-1.41-2.3-2.71-.66-4.86,1.17-6.6,3.13-2.97,6.68-5.4,10.7-7.13,9.73-4.18,19.93-6.7,30.24-8.82Z"/>
      <path class="cls-1" d="M385.41,97.94c.26,1.89-.79,2-2.39,2.32-13.15,2.64-25.24,7.93-36.54,15.09-1.16.73-2.28,1.58-3.54,2.07-2.76,1.07-4.9.03-6.63-2.25-1.74-2.29-.53-4.09.94-5.71,3.9-4.29,8.86-7.17,14.24-8.98,8.12-2.72,16.38-5.03,24.67-7.18,4.86-1.26,8.95,1.06,9.25,4.63Z"/>
      <path class="cls-1" d="M400.17,108.91c4.48.35,8.25.35,11.88,1.03,2.71.51,4.6,2.6,3.98,5.6-.67,3.27-3.14.94-4.8,1.14-7.17.9-14.4,1.5-21.51,2.77-4.07.73-6.65-.27-7.6-4.18-1.05-4.31,2.69-4.92,5.35-5.36,4.42-.74,8.96-.73,12.7-.99Z"/>
    </g>
    <g>
      <path class="cls-1" d="M163.89,49.7c1.9,3.71,1.37,7.69.89,11.52-1.3,10.37-.66,20.76-.66,31.14,0,1,.13,3.16,1.47,5.31,1.13,1.8,2.67,2.85,3.7,3.43-.26-7.47.44-18.32,5.12-30.16,0,0,4.96-12.71,16.69-24.25,3.99-3.92,8.67-6.81,14.76-5.44,6.58,1.48,8.86,6.3,5.63,12.19-1.79,3.25-3.97,6.29-5.77,9.53-.93,1.67-2.07,2.42-3.76,1.61-1.94-.93-1.32-2.4-.63-3.97,1.15-2.63,2.07-5.35,3.18-8.28-2.68-.28-3.5,1.57-4.49,2.72-12.27,14.26-19.78,30.31-18.43,49.66.28,4.03,2.35,5.46,6.22,4.98,7.75-.95,15.11-7.31,17.17-14.75,1.14-4.11.19-6.13-4.41-5.18-3.88.8-9.02,3.38-10.17-2.59-1.08-5.61,4.94-5.62,8.51-6.81,5.57-1.85,11.36-2.72,17.32-2.56,3.75.1,6.45,1.2,7.77,5.5-5.46.04-6.35,3.67-7.55,8.13-3.92,14.55-7.59,29.09-7.7,44.29-5.39-.71-6.43-1.99-6.77-9.16-.21-4.43-.04-8.87-.04-13.8-4.82,1.96-8.88,4.02-13.78,4.15-3.47.09-6.4-.54-8.89-1.92-4.67-2.59-6.21-6.27-6.21-6.27-.33-.61-1.05-2.04-2.57-2.75-.4-.19-1.45-.68-2.54-.22-.76.32-1.39,1.04-1.56,1.83-.23,1.14.56,2.15,2.12,3.95,3.59,4.12,4.61,4.78,4.39,5.33-.39.97-4.47,1.07-7.63-.87-3.36-2.06-5.67-6.39-5.67-6.39,0,0-4.55,1.41-8.46,2.42-8.81,2.28-10.93,1.67-11.89,1.32-.86-.31-3.01-1.12-4.12-3.17-.9-1.67-.78-3.71-.24-6.06,2.63-11.6,5.73-23.07,10.18-34.14,2.47-6.13,4.75-12.35,7.29-18.45.86-2.07,1.56-3.49-1.58-3.88-2.3-.29-2.57-1.98-2.02-3.97,1.95-7.05,5.49-13.33,9.26-19.52,1.18-1.93,2.83-1.83,4.62-1.37,2.16.56,2.37,2.17,2.29,4.11-.29,6.97-1.59,13.94,2.28,20.64,1.29,2.23-1.69.76-2.61,1.21-.24.33-.48.66-.72.99ZM148.52,101.49c7.71-1.31,8.76-5.23,4.21-13.18-1.32,4.14-2.67,8.37-4.21,13.18ZM161.81,47.73c-1.13-2.85-2.13-5.38-3.47-8.77-1.69,3.08-3,5.46-4.39,7.99,2.79.28,5.02.5,7.86.78Z"/>
      <path class="cls-1" d="M31.11,125.45c3.09-11.25,6.01-22.54,9.29-33.73,5.55-18.93,11-37.92,21.63-54.84,2.04-3.25,4.29-6.53,8.89-3.83,2.47,1.45,4.28,2.41,1.05,5.87-5.27,5.65-7.06,13.43-9.28,20.69-7.99,26.1-15.71,52.28-23.57,78.42-.96,3.2-1.9,6.65-6.14,6.89-4.42.24-8.13-1.16-10.36-5.27-.83-1.54-1.76-3.1-2.19-4.76-4.9-18.95-5.89-38.24-4.63-57.68.12-1.82-.16-4.68,3.38-4.25,3.3.4,5.52,1.7,5.78,5.38.73,10.55,1.43,21.1,2.36,31.62.46,5.22.82,10.5,3.79,15.49Z"/>
      <path class="cls-1" d="M81.41,116.62c10.87-2.31,20.88-4.93,31.38-4.68,5.05.12,7.47,2.96,8.58,7.26.46,1.79-.76,4.48-2.67,2.96-5.2-4.14-10.45-1.28-15.17-.3-14.29,2.97-28.61,6.19-41.65,13.21-2.71,1.46-4.99,1.21-6.78-1.08-1.71-2.18-1.12-4.62.8-6.33,2.07-1.84,1.89-3.86,1.84-6.31-.23-11.18,1.17-22.21,3.33-33.18.84-4.28,3.16-5.52,7.11-4.63,4.06.92,3.69,3.59,3.03,6.81-1.8,8.8-3.37,17.66-4.88,26.52-.2,1.18-1.21,3.36,1.1,3.57,1.62.15,3.54-.27,3.71-2.78,1.57-22.22,8.83-43.11,15.17-64.2.79-2.61,1.72-5.2,2.85-7.68,1.11-2.45,2.18-5.54,5.83-4.37,3.59,1.15,5.3,3.9,4.58,7.71-1.85,9.79-5.45,19.08-8.26,28.59-3.74,12.67-7.74,25.28-9.92,38.92Z"/>
      <path class="cls-1" d="M245.41,77.22c2.54,1.19,4.43.45,6.44-.14,3.91-1.17,7.89-2.11,11.84-3.15,3.32-.88,5.49.81,6.26,3.66.81,2.97-1.97,3.14-3.99,3.85-11.99,4.2-23.45,9.6-34.48,15.85-3.92,2.22-7.17,2.35-9.35-1.81-2.04-3.89.61-6.35,3.7-8.02,6.46-3.48,10.46-9.89,17.99-13.44-3.68-1.54-5.7.13-7.65.77-4.45,1.46-7.46-.23-9.14-3.99-1.79-4.02,1.6-5.59,4.47-6.87,9.75-4.34,20.28-5.53,30.69-7,2.85-.4,5.31,1.41,6.46,4.18.56,1.34,1.03,3.2-1.32,3.71-8.49,1.84-14.19,8.44-21.9,12.4Z"/>
      <path class="cls-1" d="M102.15,98.56c3.02-.93,6.08-1.28,9.25-.94,3.08.33,4.69,2.14,4.71,4.99.02,3.16-2.41,3.65-4.97,3.46-6.02-.45-11.62.99-16.98,3.61-1.17.57-2.34,1.96-3.64.62-1.36-1.42-1.58-3.74-.33-4.85,3.4-3.02,2.95-6.93,3.48-10.74,1.85-13.2,6.31-25.67,10.98-38.07,1.15-3.07,2.45-6.22,6.6-4.67,3.6,1.35,4.79,3.96,3.69,7.97-3.55,12.96-8.21,25.5-13.51,37.82-.21.31-.42.61-.62.92.44-.03.89-.07,1.33-.1Z"/>
      <path class="cls-1" d="M263.23,93.08c3.59.26,5.84,1.9,6.87,4.99.55,1.63.46,2.98-1.88,3.31-14.98,2.15-28.08,8.95-40.78,16.69-.83.51-1.65,1.05-2.52,1.49-2.84,1.43-4.85,0-6.67-2-2.04-2.24-1.21-4.38.42-6.29,1.13-1.33,2.44-2.57,3.87-3.58,12.29-8.72,26.95-10.79,40.69-14.61Z"/>
      <path class="cls-1" d="M165.93,120.34c-.4,1.34-2.62,1.75-3.94,2.04-6.04,1.32-11.75,4.11-17.65,6.14-2,.69-4.16,1.39-6.22,1.31-3.06-.11-5.07-2.38-5.67-5.14-.14-.62-.1-1.15.06-1.61.62-1.75,2.93-2.41,3.92-2.69,7.6-2.16,11.39-3.24,24.41-6,.17-.04.65-.14,1.21,0,.56.14,1.26.53,2.42,2.42,1.13,1.85,1.7,2.77,1.48,3.53Z"/>
      <path class="cls-1" d="M66.15,68.98c.26-6.43,1.25-11.16,2.52-15.84.8-2.96,2.78-4.22,5.7-3.48,2.89.74,5,2.52,4.43,5.83-1.12,6.44-5.17,12.17-4.5,19.1.14,1.49-1.66,1.3-2.77,1.1-4.76-.82-5.61-4.18-5.37-6.72Z"/>
      <path class="cls-1" d="M122.88,91.98c1.04-2.94.85-6.76,2.81-10.04,1.32-2.22,2.92-3.84,5.65-2.42,2.47,1.29,3.88,3.47,2.76,6.21-1.61,3.92-4.93,6.95-6.04,11.21-.25.96-1.37,1.33-2.44.85-2.28-1.03-2.93-2.94-2.74-5.81Z"/>
    </g>
  </g>
</svg>